<svg width="40" height="40" fill="none" xmlns="http://www.w3.org/2000/svg"><path d="M37.7 25.9H2.3C1 25.9 0 26.9 0 28v1.8c0 1.2 1 2.1 2.3 2.1h.5v.5c0 2.8 2.3 5 5.2 5h24c3 0 5.2-2.2 5.2-5V32h.5c1.3 0 2.3-1 2.3-2.1V28c0-1.1-1-2.1-2.3-2.1Zm-2 6.5c0 2-1.6 3.5-3.6 3.5H7.9c-2 0-3.6-1.5-3.6-3.5V32h31.4v.5Zm2.7-2.6c0 .3-.3.6-.7.6H2.3a.7.7 0 0 1-.7-.6V28c0-.3.3-.6.7-.6h35.5c.4 0 .7.3.7.6v1.8ZM8.5 21.7l2.8 2 3-2 2.8 2 2.9-2 2.8 2 3-2 2.8 2 2.9-2 2.9 2 3.3-2.3-.9-1.2-2.4 1.6-2.9-2-2.9 2-2.9-2-2.9 2-2.8-2-2.9 2-2.9-2-2.9 2-2.8-2-2.9 2-2.4-1.6-1 1.2 3.4 2.4 2.9-2Zm28.7-3.4v-1.5c-.3-8-8-14.2-17.2-14.2-9.3 0-16.9 6.3-17.3 14.2v1.5h34.5ZM20 4.1c8.4 0 15.3 5.6 15.6 12.7H4.3C4.7 9.8 11.6 4 20 4Z" fill="#81B3D2"/><path d="M20 11.2c.6 0 1-.5 1-1 0-.6-.4-1-1-1a1 1 0 0 0-1 1c0 .5.4 1 1 1Zm-4.2-2.5c.6 0 1-.5 1-1 0-.6-.4-1-1-1a1 1 0 0 0-1 1c0 .5.4 1 1 1Zm8.4 0c.6 0 1-.5 1-1 0-.6-.4-1-1-1a1 1 0 0 0-1 1c0 .5.4 1 1 1Z" fill="#81B3D2"/></svg>