<svg xmlns="http://www.w3.org/2000/svg">
    <symbol viewBox="0 0 24 24" id="icon-vk">
      <g clip-path="url(#a)">
        <path fill-rule="evenodd" clip-rule="evenodd"
          d="M23.4 6c.2-.6 0-1-.7-1H20c-.6 0-1 .3-1.1.7 0 0-1.3 3.2-3.2 5.3-.7.6-1 .8-1.3.8-.1 0-.4-.2-.4-.7V5.9c0-.6-.2-.9-.7-.9H9.2c-.5 0-.7.3-.7.6 0 .6 1 .8 1 2.5V12c0 .8-.1 1-.5 1-.9 0-3-3.2-4.3-6.9-.3-.7-.5-1-1.2-1H1c-.8 0-.9.3-.9.7 0 .7.9 4.1 4.1 8.6 2.2 3 5.3 4.7 8 4.7 1.7 0 2-.4 2-1v-2.3c0-.8 0-.9.6-.9.4 0 1 .2 2.6 1.7 1.8 1.7 2.1 2.5 3.1 2.5H23c.8 0 1.2-.4 1-1.1-.3-.7-1.1-1.8-2.3-3L20 13c-.4-.5-.3-.7 0-1.1 0 0 3.2-4.4 3.5-6Z" />
      </g>
      <defs>
        <clipPath id="a">
          <path d="M0 0h24v24H0z" />
        </clipPath>
      </defs>
    </symbol>
    <symbol viewBox="0 0 24 24" id="icon-telegram">
      <path
        d="m22.4 4.6-3.1 15c-.3 1-.9 1.3-1.8.8l-4.8-3.6-2.3 2.3c-.3.2-.5.4-1 .4l.3-4.9 9-8c.4-.4-.1-.6-.6-.3l-11 7-4.8-1.5c-1-.3-1-1 .2-1.5L21 3c.9-.3 1.6.2 1.3 1.5Z" />
    </symbol>
    <symbol viewBox="0 0 24 24" id="icon-youtube">
      <path
        d="M19.2 5H4.8A2.9 2.9 0 0 0 2 7.8v8.3C2 17.7 3.3 19 4.8 19h14.4c1.6 0 2.8-1.3 2.8-2.8V7.8C22 6.3 20.8 5 19.2 5ZM9 15.4V8.6L16 12 9 15.4Z" />
    </symbol>
    <symbol viewBox="0 0 36 36" id="icon-htmlacademy">
      <path
        d="M18.2 2.3H18L4.5 3.5v23.6L18.1 35l13.4-7.7V3.6L18.2 2.2Zm11.4 11.5L18 7.3h-.2V7v.1L6.3 13.8V5.2L18 4.1l11.7 1.1v8.6Zm-11.7-5 11.6 6.4-4.5 2.5-7.2-4V15l6 3.3-1 .5-5-2.9v1.4l3.9 2.2-.8.4-3-1.7v1.4l1.9 1-1.9 1-11.4-6.3L18 8.8ZM6.4 16.7l11.4 6.5v1L10 19.7V21l8 4.6v1l-8-4.4v1.3l8 4.6 8.2-4.7v-5l3.4-1.9v9.6l-11.6 6.6-11.5-6.5v-9.5Z" />
    </symbol>
    <symbol viewBox="0 0 23 21" id="icon-like">
      <path
        d="m13 3.8-.7 3-.6 2.6h9.1v2.2l-3 7.3H8.4V8.4L13 3.8ZM2 10.5v8.4-8.4ZM13.9 0 6.9 7c-.4.2-.6.8-.6 1.4v10.5c0 1.2 1 2.1 2 2.1h9.5a2 2 0 0 0 1.9-1.3l3-7.4c.2-.2.2-.5.2-.8v-2h.1c0-1.2-1-2.2-2-2.2h-6.7l1-4.8v-.3c0-.4-.1-.8-.4-1.2l-1.1-1ZM4.2 8.4H0V21h4.2V8.4Z" />
    </symbol>
  </svg>
