<svg width="40" height="40" fill="none" xmlns="http://www.w3.org/2000/svg"><path d="M15.9 34.8h8.4V22.6h-8.4v12.2Zm6.8-1.5h-5.3v-9.2h5.3v9.2Z" fill="#81B3D2"/><path d="m38.4 21.6 1.1-1-5.2-5V1.7h-7.2v6.7l-7.1-7L.5 20.7l1.1 1 4-3.9V37h-2v1.5H37V37h-2.7V17.7l4.1 4ZM28.6 3.3h4.2V14l-4.2-4V3.3ZM32.8 37H7.2V16.2L20 3.7l12.8 12.5v20.7Z" fill="#81B3D2"/><path d="M16 15.4a4 4 0 0 0 4 4 4 4 0 0 0 4.2-4 4 4 0 0 0-4.1-3.9 4 4 0 0 0-4 4Zm4-2.5c1.5 0 2.7 1.1 2.7 2.5S21.5 18 20 18a2.6 2.6 0 0 1-2.6-2.6c0-1.4 1.2-2.5 2.6-2.5Zm-9.1 9.7H9.3v2H11v-2Zm3.1 0h-1.6v2H14v-2Zm-3.1 3.1H9.3v2H11v-2Zm3.1 0h-1.6v2H14v-2Zm13.5-3.1H26v2h1.5v-2Zm3.2 0H29v2h1.6v-2Zm-3.2 3.1H26v2h1.5v-2Zm3.2 0H29v2h1.6v-2Z" fill="#81B3D2"/></svg>