<svg xmlns="http://www.w3.org/2000/svg" xmlns:xlink="http://www.w3.org/1999/xlink"><symbol id="icon-htmlacademy" viewBox="0 0 27 35"><g fill="none">
  <path d="M13.6 0H13.5L0 1.4V26.1L13.5 34.1L26.9 26.1V1.4L13.6 0ZM25 12.1L13.5 5.3V5.2H13.4L13.3 5.1V5.2L1.9 12.1V3.1L13.4 1.9L25 3.1V12.1ZM13.4 6.8L24.9 13.5L20.4 16.1L13.3 11.9V13.3L19.2 16.8L18.3 17.3L13.3 14.3V15.7L17.1 18L16.3 18.5L13.3 16.7V18.1L15.2 19.2L13.4 20.3L2 13.6L13.4 6.8ZM1.9 15.1L13.3 21.9V22.9L5.4 18.2V19.6L13.4 24.4V25.5L5.4 20.8V22.2L13.4 27L21.5 22.1V16.9L24.9 14.9V24.9L13.4 31.8L1.9 25V15.1Z" fill="currentColor"/>
</g></symbol><symbol id="icon-like" viewBox="0 0 23 21">
  <path d="M12.9636 3.78L12.3364 6.825L11.7091 9.45H14.3227H20.8045V11.55C20.8045 11.55 20.8045 11.55 20.8045 11.655L17.7727 18.9H8.36364V8.4L12.9636 3.78ZM2.09091 10.5V18.9V10.5ZM13.8 0L6.9 6.93C6.48182 7.245 6.27273 7.77 6.27273 8.4V18.9C6.27273 20.055 7.21364 21 8.36364 21H17.7727C18.6091 21 19.3409 20.475 19.6545 19.74L22.7909 12.285C22.8955 12.075 22.8955 11.76 22.8955 11.55V9.45H23C23 8.295 22.0591 7.35 20.9091 7.35H14.3227L15.3682 2.52V2.205C15.3682 1.785 15.1591 1.365 14.95 1.05L13.8 0ZM4.18182 8.4H0V21H4.18182V8.4Z" fill="current-color"/>
</symbol><symbol id="icon-telegram" viewBox="0 0 24 24"><g fill="none">
<path d="M22.4393 4.62225L19.2705 19.566C19.0313 20.6205 18.408 20.883 17.5223 20.3865L12.6938 16.8285L10.3643 19.0695C10.1063 19.3275 9.89102 19.5428 9.39377 19.5428L9.74102 14.6258L18.6893 6.54C19.0785 6.1935 18.6045 6.00075 18.0848 6.348L7.02227 13.314L2.25977 11.823C1.22402 11.4998 1.20527 10.7873 2.47577 10.29L21.1035 3.11325C21.966 2.79 22.7205 3.30525 22.4393 4.623V4.62225Z" fill="white"/>
</g></symbol><symbol id="icon-vk" viewBox="0 0 24 14"><g fill="none">
  <path fill-rule="evenodd" clip-rule="evenodd" d="M23.45 0.948C23.616 0.402 23.45 0 22.655 0H20.03C19.362 0 19.054 0.347 18.887 0.73C18.887 0.73 17.552 3.926 15.661 6.002C15.049 6.604 14.771 6.795 14.437 6.795C14.27 6.795 14.019 6.604 14.019 6.057V0.948C14.019 0.292 13.835 0 13.279 0H9.151C8.734 0 8.483 0.304 8.483 0.593C8.483 1.214 9.429 1.358 9.526 3.106V6.904C9.526 7.737 9.373 7.888 9.039 7.888C8.149 7.888 5.984 4.677 4.699 1.003C4.45 0.288 4.198 0 3.527 0H0.9C0.15 0 0 0.347 0 0.73C0 1.412 0.89 4.8 4.145 9.281C6.315 12.341 9.37 14 12.153 14C13.822 14 14.028 13.632 14.028 12.997V10.684C14.028 9.947 14.186 9.8 14.715 9.8C15.105 9.8 15.772 9.992 17.33 11.467C19.11 13.216 19.403 14 20.405 14H23.03C23.78 14 24.156 13.632 23.94 12.904C23.702 12.18 22.852 11.129 21.725 9.882C21.113 9.172 20.195 8.407 19.916 8.024C19.527 7.533 19.638 7.314 19.916 6.877C19.916 6.877 23.116 2.451 23.449 0.948H23.45Z" fill="white"/>
</g></symbol><symbol id="icon-youtube"><g fill="none">
<path d="M19.1813 5H4.81331C3.30618 5 2 6.3 2 7.8V16.1C2 17.7 3.30618 19 4.81331 19H19.1813C20.7889 19 21.9946 17.7 21.9946 16.2V7.8C22.095 6.3 20.7889 5 19.1813 5ZM9.03326 15.4V8.6L15.8656 12L9.03326 15.4Z" fill="white"/>
</g></symbol><symbol id="logo" viewBox="0 0 185 96"><g fill="none"><path d="M185 0H0l79.8 90.1c7 7.9 18.5 7.9 25.5 0L185 0Z" fill="#81B3D3"/><path d="M42.8.7 92 58.8l48.9-57.7-98-.4Z" fill="#23A9E1"/><path d="m121 17.2-15.1.1c6-6.8 8.6-6.1 15 0ZM80.1 22.6h26.5c-2-1.2-6.7-7-9.2-4.9-.2.2-7.5-8.8-12.2-4.5-4.2 3.8-6-.5-10.8 2.5-5.3 3.6 3.1 5.7 5.7 6.9Z" fill="#fff"/><path d="M92.3 0H41.8v22.4L92 83.6l.3-.4 50.3-60.1V0H92.3ZM54.4 1.8H60v17.1l-5.5-6.5V1.8Zm-.8 9.7-5-5.8v-4h5v9.8ZM72.8 9 67 1.8h5.7v7Zm-6.6 3.7L60.7 1.8h5.5v10.8Zm-5.6-9.2L66 14c-2.7 2.1-4.6 4-5.4 5V3.3Zm6.4-.5 5.6 6.9a41.8 41.8 0 0 0-5.6 3.6V3Zm6.6-.2 4.7 4.2a53 53 0 0 0-4.7 2.3V2.7ZM79 6.6l-5.3-4.8h6v4.6c-.4 0-.5 0-.7.2Zm19-4.8h5l-5 2.4V1.8Zm-5.8 0h4.4l-4.4 2v-2Zm-.9 2-4.2-2h4.2v2Zm-5.4.5-5.1-2.5h5v2.5Zm-5.6-2 4.7 2.4L80.4 6V2.4Zm6.3 0L90.1 4c-1.2 0-2.3.2-3.4.4v-2Zm10.4.2v1.9L93.7 4 97 2.5Zm6.4-.1V6c-1.5-.5-3-1-4.8-1.4l4.8-2.3Zm.7-.6h5.8l-5.3 4.8-.5-.2V1.8Zm13.5 0h5.5l-5.5 10.8V1.8Zm-6.6 0h5.7l-5.7 7v-7Zm-.8.9v6.5a53 53 0 0 0-4.7-2.3l4.7-4.2Zm6.6.2v10.4l-2.3-1.6-3.4-2 5.7-6.8Zm6.3.5v15.1c-1-1-2.8-2.7-5.4-4.6l5.4-10.5Zm.8 16V1.7h5.5V13l-5.5 6.2c.1.1 0 .1 0 0Zm6.3-17.6h5v4.7l-5 5.7V1.8ZM48 1.8v2.9l-2.5-3H48Zm12.7 18.1v.1s3.6-3.9 9.2-7.6A40.4 40.4 0 0 1 92 5c8.8 0 17 4.2 22.1 7.6 5.6 3.7 9.2 7.5 9.3 7.6l-3.8 4.5c-6.9.9-11.8 6-18.5 5-3.3-.6-3.4-2.5-4.4-4.5-.7-1.5-2-1.3-3.5-1.9-1.4-.6-2.3-1.7-5.2-1.1-2.4.6-2.7 4.5-6 4.3-1.6-.1-1.7-2.5-4-5.5-6.3-7.6-12.2-6.5-16.1.5l30 35.7L60.7 20Zm75.2-14.4V1.8h3.2l-3.2 3.7Z" fill="#491213"/><path d="m88 70.6 4-6.5 4 6.5-4 6.5-4-6.5Z" fill="#23A9E1"/><path d="M65 32.2c.4.6.8 1.3.7 2 0 .6-.9 1.6-.3 1.8l2.2-2.7c-.6-.2-5.3-5.8-5.3-6.5L59 28.5c.2.7 1.3 0 1.9 0 .8 0 1.4.6 2 1.2-1.7 1.4-5.9 5-6.4 5-.2 0-1-.6-1 0 0 .2.8 1 1 1.1.6 1 1.4 1.8 2 2.7.7-.3 0-.7.3-1.2.3-.4 4.8-4.2 6-5.1ZM59.7 25.2c.4-.1.6.4 1-.1l-2.4-2.9c-.4-.4-.8-.9-.7 0 .1.6-6 5.7-6.4 5.8-.5.2-.8-.4-1.1 0l2.1 2.7.7.9c.3.3.2-.7.2-.6 0-.5.5-1 1-1.2 1.4-1.3 5.2-4.6 5.6-4.6ZM51 24.3c-1.8.5-3.7-.2-4.2-2s.6-3.8 2-4.8c1.5-1 3.6-1 4.4.8.3.8.2 1.7 0 2.5-.3.5-.7 1 0 1.3 1-1 1.7-2.2 2.6-3.3-1-.6-1.5-1.7-2.3-2.6-.9-1-2-2-3.4-2.3-3-.4-5.6 2.6-5.8 5.2 0 1.5.4 2.8 1.2 4 .8 1 1.9 1.6 2.4 2.8.3 0 2.7-1 3.3-1.3l-.2-.3c-.7.2 0 0 0 0ZM90 60.5c-1.3-.8-4-4.6-4.6-5.2l-.3-.4-.2.2c-.2 0 0 .6-.1.9-.8 1.1-5.8 5-6 5.1-.6.4-1.2-.2-1.5.3.7 1 2.8 3.5 3 3.6.5.1.1-.8.2-1 .1-.4 2.6-2.4 3.5-3.2.3-.3.7.4.9.7.3.5.5 1 .3 1.6-.1.4-.7 1-.3 1.2l2.5-3c.3-.3-.6 0-.5 0a1 1 0 0 1-1 0c-.1-.2-1.1-1.2-1-1.3.4-.4 1-1 1.5-1 .8-.3 1.5 1.4 1.6 2v1.8c-.2.4-.6.7 0 1l2-3c.2-.2 0-.3 0-.3-.2 0 .1 0 0 0ZM79.8 56.4c2.2-2 2.5-5.1.8-7.3-1.9-2.5-5.4-3.1-7.7-1.1a5.3 5.3 0 0 0-.8 7.3c2 2.6 5.1 3 7.7 1 1.2-.8 0 .2 0 0Zm-.5-4.7c-.6 1.5-2.2 3-3.7 3.7-1.7.7-3-.8-2.3-2.6.7-1.5 2.1-3.1 3.6-3.7 2-.7 3.1.9 2.4 2.6-.4.9.1-.2 0 0ZM73.5 41.8c.5.1.9.5 1.3 0l-2.2-2.6c-.6.3 0 .5-.2 1-.2.4-2.6.8-3.2 1 .2-.7.9-2.7 1.2-2.9.5-.4.9.4 1.3 0L69 34.8c-.3-.4-.6-1-1-.7V36c-.2.2-1 3.6-2 4.5-.5.4-2.2 2-2.6 2.1-.5.2-.8-.6-1.2 0l2.4 3c.1.1.6.9.8.9.5 0 .1-.9.1-1.1.2-.4 2.5-2.7 3.5-2.9 1.2-.2 3-.7 4.5-.6.3.1-.4 0 0 0Z" fill="#fff"/><path d="M67.2 22.8c-4-.2-2.4-4 .4-4.8 2.6-.8 8 1.7 9.7 3.4-2.7.9-6.3.7-9.3.9-.2-3.2-1-2-.8.5ZM76.6 35.2c-8.5 0-2.7-13.2.1-12.4 3.4 1 3 12.5 0 12.4ZM82.7 31c-.8 2.5-2.4 3-2.2-.1.2-3.5 2.5-2.7 4.9-4 2-1.1 3-5.2 6.5-2.8 1.6 1 3.4.2 3.9 1.8 0-.1-4.5 10.2-2 10.2-5 0-2.8-5.8-.9-9.8-1.8.9-4.8 6.7-2.4 7.6-1.3 1.6-5.1 3.8-7.1 2.2-1.5-1-.7-3.1-.7-5.1ZM86.7 40.5c-3.4 1-8-1.2-2.4-2.3 3.4-.7 7.1.7 2.4 2.3.1 0 0 0 0 0ZM91.1 40.4c-.7-1.7.6-3.6 2.7-2.2 1.8 1.2-.9 3.1-2.7 2.2ZM88.1 45c-2.3-.7-10.4-.6-5.1-2.8 1.7-.6 10 .2 5.1 2.8ZM98.5 48.3c-1.3-1.2-2.8-1.3-4.1 0C92.6 45 86.2 46 83 45.6c1.6 4 14.7 4.9 15.4 2.7ZM96.7 50.8c-3.2-.1-6.7-.6-9.6 0 2 .6 6.4 1.9 2.2 3 1.5 2.2 4 2 5.6 0-.7-.2-1-.6-1.6-1 1.6-.3 3.2-1.2 3.4-2ZM100.2 46.9c-5.2-3-4-5.4.4-7.6 2.3-1 7.3-5.2 9.3-3.9-3.2 4-6.5 7.7-9.7 11.5Z" fill="#DC6243"/><path d="M96.5 39.6C92 35 103 35.4 104.9 34c1.3.3 10.7-8.3 13-7.7-1.7 1.9-5.2 8-7.8 8-2 0-4-.3-5.4 1.1-2.2 2.1-5.9 3.1-8.2 4.3Z" fill="#F49774"/><path d="M98 34c-2.5 1.3-4.8-3.8-.5-3.3 2.7.3 5.6-.2 8.2.2A8.6 8.6 0 0 1 98 34Z" fill="#F4B1A4"/><path d="M110.4 52.3c.2.6.3 1.3.2 2 0 .9-1 2.8-2.1 2.2-1.2-.5-2.2-1.6-3.2-2.5.8-1 1.5-1.7 2.9-1.3.4 0 .7 0 .3-.3-.4-.2-3.1-2-3.3-1.8-.3.3.5.9.2 1.5l-.9 1.2c-.7-.6-1.9-1.3-1-2.3.4-.7 1.2-1.2 2-1.3.6-.1 1.8.4 2-.2l-3.3-1.6c.2.8-3.3 4.5-4 5.5-.2 0-.8.6-.8.8 0 .4.6 0 .7 0 .5-.1 6.8 5.1 7 5.5 0 .3-.2.6 0 .7l.3.2c.4-.5 4.4-6 5.3-6.1l-2.4-3.7c-.5.3 0 1 .1 1.5ZM104.3 59c-2-1.4-5.6 1.2-6 1.4-1 .5-1.8-.5-1.3-1.5a3 3 0 0 1 2.2-1.3c.3 0 1.3.2 1.5 0 .1-.2.2-.2 0-.3l-2.5-1.6c-.2 1-1.4 1.6-2.1 2.3-.8 1-1.5 2-1.5 3.2 0 1.1.7 2.1 1.7 2.7 1 .6 2.2.1 3.2-.5.6-.4 1.3-.9 2-1.2 1-.5 2.2 0 2 1.3-.4 1.1-1.5 2.1-2.5 2.3a3 3 0 0 1-1.9 0c-.4-.2-1-.8-1.1-.2l3.4 2.5c.1-.8.5-1.1 1.1-1.6l2-2c1.2-1.8 1.6-4.2-.2-5.6Z" fill="#fff"/><path d="M104.3 59c1 .5-.6-.6 0 0ZM140.7 19.5c-.7.7-8.3-2.3-9-2.8-.2 0-.2-1.3-.6-.8l-1.2 1.5-1.3 1.5c-.3.3-.5.5 0 .7.8-.4 5.3 7.3 5 8.5-.7.4-6.9-5.1-7-5.4-.2-.1.2-1-.3-.9-.2 0-.7.9-.9 1.1l-.9 1c.3.6.5 0 1 0l2.2 1.8h-2.9c-.9.2-.4-.6-1-.8l-2.3 2.8-1.2 1.6c-.1 0 0 0 0 0 .3.4 0 .3.6 0a42 42 0 0 1 6.7 5.2c.4.4-.2 1 .4 1.2l1.8-2.1v-.2c-.4-.4-.5.2-1 .2-.5-.1-4.4-3.4-5.9-4.6l8.2-.3c.3 0 1 .9 1 1.2 0 .4-.4.6.2.8l1.4-1.7.2-.3.2-.3.2-.2c.4-.5 1.8-2 1.6-2.1-.5-.4-.7.5-1.3-.1-.3-.2-1.2-1.8-1.4-2.2-.3-.4.6-.9 1-1.1.8-.5 3.2-1.2 3.5.3 0 .3-.3.5 0 .7l.2.2 3.3-4-.5-.4Zm-7.4 2.2c.1 0 .2-.1 0 0a7 7 0 0 0-1 .8l-1.5-2.7 3.4 1.5-.9.4ZM123.7 32.9c-2.4-2-5.5-1.4-7.5.8a5.4 5.4 0 0 0 .6 7.5 5.4 5.4 0 0 0 7.5-.8c2-2.3 1.8-5.7-.6-7.5Zm-.3 6.5s0 .1 0 0c-1.3 1.3-3.3.1-4.4-.7-1.1-.8-3.1-2.6-2-4 1.2-1.3 3.2-.3 4.3.4 1.1.8 3.3 2.6 2.2 4.2.1 0 .1 0 0 .1Z" fill="#fff"/><path d="M123.7 32.9c1.2 1-.3-.2 0 0ZM123.4 39.5h.1ZM117.2 42s.3.2 0 0c-2.9-2.3-6.3-1.7-8.4 1l-3 3.6c.4.5.8-.1 1.3.2.4.3 6.1 5 6.2 5.4.2.5-.3.5.1.9.2 0 4.5-5.2 4.9-6.2.9-1.8.3-3.7-1.1-5Zm-1.3 6.7-.7.7c-.3.3-6.3-4.7-6.1-4.9.8-.9 2.5-1.6 3.5-1.3 2.2.5 5.2 3.2 3.3 5.5Z" fill="#fff"/></g></symbol><symbol id="sedona-label" viewBox="0 0 229 39"><g fill="none"><path d="M27.3 26.6v.7c-.3 2-1 4-2 5.8-1 1.8-2.5 3.2-4.2 4.2L19 38l-2.1.5-1.8.3-1.7.1h-.6A19.7 19.7 0 0 1 0 33.6L4.7 26l.2.2c1 1.1 2.2 2.2 3.5 3.2 1.3 1 2.9 1.5 4.6 1.6h.1l.2.1h.1l.2.1h.5l.5-.1a4.8 4.8 0 0 0 3-2l.1-.3.1-.3.2-.7v-.7c0-1-.4-2-1.3-2.6-1-.7-2-1.3-3-1.7l-1.2-.4-1-.2h-.2v-.1c-2-.5-3.8-1.2-5.4-2.3A8.2 8.2 0 0 1 2 14.2 11 11 0 0 1 2 13V11c0-.3 0-.6.2-1 0-.7.3-1.5.6-2.3.2-.7.6-1.4 1-2a11 11 0 0 1 4.8-4.5 16 16 0 0 1 6-1.2l1.6.1 1.6.2a20.5 20.5 0 0 1 8 3l-3.2 7.3A28 28 0 0 0 19 8.5a8 8 0 0 0-3.7-.9h-.5c-1 .1-1.7.5-2.5 1.2s-1.2 1.5-1.2 2.3v.3l.2.4.4.7.7.7 1.8 1 2.6.8 2.1.5 1.8.5a9 9 0 0 1 5 3.9c1 1.8 1.6 3.7 1.6 5.7v1Zm30 3.2V38H34.7V.9h22.8V9H44.6v6.5h12v8h-12v6.3h12.8Zm38.5-1.5a15.8 15.8 0 0 1-11.1 8.8c-2.2.5-4.3.8-6.5.9H64.5V1h14.3c2 .1 4.1.4 6.2.9a15.3 15.3 0 0 1 10.7 8.6c1.2 2.5 1.9 5 2 7.6v2.3c0 2.8-.7 5.4-2 8Zm-8.2-9.2v-.5c-.2-1.4-.5-2.9-1.1-4.2a8.4 8.4 0 0 0-2.6-3.3 6.9 6.9 0 0 0-2.7-1.4c-1-.3-2-.4-3-.4h-3.8v20.5h.4l.4.1h.4l.3.1h1.2l1.2-.1 3-.5c1-.3 1.8-.8 2.6-1.3a7.9 7.9 0 0 0 2.8-3.6c.6-1.6.9-3.2.9-4.8V19Zm54.9 2c0 .4 0 .8-.2 1.2a18.7 18.7 0 0 1-8.9 13.6 21 21 0 0 1-10.8 3H121a21.3 21.3 0 0 1-7.7-2.2 19 19 0 0 1-7.6-7.3 19.4 19.4 0 0 1-2.9-10l.1-1.5.2-1.5a25.1 25.1 0 0 1 2.2-6c1.8-3.4 4.2-5.9 7.4-7.6A20.3 20.3 0 0 1 124.1.2l1.4.1a21.1 21.1 0 0 1 8.3 3c2.8 1.8 5 4.2 6.4 7.2 1.5 3 2.3 6 2.3 9.3V21Zm-10.1-2.2v-.7c-.3-1.6-.8-3.2-1.6-4.8a9 9 0 0 0-3.3-3.6l-1.2-.5-1.1-.4-1.2-.2-1.2-.1c-2 0-3.8.6-5.4 1.9a9.9 9.9 0 0 0-3.5 5l-.1.2v.2l-.4 1-.2 1.2-.1.8v1.8c0 2 .7 4 1.9 5.8a8 8 0 0 0 5.4 4h.8l.7.2h.7a9.9 9.9 0 0 0 9.6-9.3l.1-.8V19Zm43.8 19.2-14-19.2c-.5-.5-.8-1-1.2-1.7a25 25 0 0 1-1.6-3.5l-.6-1.3a42.8 42.8 0 0 1 .6 7.4V38h-9.8V.9h9.8l14 19.1 1 1.7 1 1.9.6 1.5.7 1.4-.1-1.2-.2-1.2-.1-2.4V1h9.6V38h-9.7Zm42.7 0-1.9-6.7h-14.3l-2 6.7h-10L203.6 1H216L229 38h-10.1ZM211 11.9l-.5-1.8-.5-2-.1-.6-.1-.6-.2.6-.1.6-.1.2v.2l-.4 1.8-.5 1.6-3.8 12.3H215L211.1 12Z" fill="#fff"/></g></symbol><symbol id="welcome-label" viewBox="0 0 282 214"><g fill="none"><path d="m101.4 42.8-.1.1c-.9 1-1.9 1.4-2.8 1.4l1.7-3c1.1-2 0-3.8-1.6-3.8-1.4 0-2.6.6-3.6 2.4l-1 1.6-.7 1.3v.1c-1.4 1.6-2.7 2.8-3.5 2.8-.4 0-.6-.3-.2-1l4-6.8H95l.6-.9H94l1.7-3H94l-1.7 3h-1.7l-.5.9h1.6L88 44.2c-.8 1.4-.2 2.6 1.3 2.6 1 0 2.2-.8 3.3-1.9 0 2.4 3.3 2.9 5.3.4h.4c1.1 0 2.8-.7 3.7-1.8 0-.3-.3-.6-.5-.7Zm-4 .1a1.1 1.1 0 0 0-1 1.7v.1c-.8 1.5-2.9 1.2-1.8-.7l1.4-2.4.8-1.5c1.3-2.2 3.1-1.3 2 .6l-1.3 2.2ZM126.9 42.8l-.2.1c-1.3 1.6-3 2.8-4.3 2.8-1 0-1.7-.8-1-2.2l.2-.3c1.2.5 3.5.2 4.8-2.2l.3-.4c1-1.7 0-3-1.5-3s-2.6.9-3.4 2.2l-1.8 3-.1.2c-1.4 1.5-2.7 2.7-3.5 2.7-.4 0-.6-.3-.2-1l2.7-4.6c.8-1.4 0-2.4-1-2.4-.8 0-1.7.5-2.6 1.4l3-5h-1.9l-5 8.7-.2.1c-1.3 1.6-2.6 2.8-3.4 2.8-.5 0-.6-.3-.2-1l4-6.8h1.4l.5-1H112l1.7-2.9H112l-1.7 3h-1.7l-.5.9h1.6l-3.7 6.3c-.8 1.4-.2 2.6 1.3 2.6a4 4 0 0 0 2.3-1l-.5.9h1.8l2.8-4.9c2.8-3.5 4-3 3.3-1.7l-2.4 4.2c-.8 1.3-.2 2.6 1.2 2.6 1.2 0 2.4-.9 3.5-2 0 1.2 1 2 2.5 2 2 0 4.2-1.6 5.6-3.4.1-.3-.2-.6-.4-.7Zm-3.5-2.6c1-1.8 2.9-1.5 1.8.4l-.2.4c-1 1.5-2.1 1.5-2.8 1.3l1.2-2ZM193.8 42.8l-.1.1c-.7.8-1.5 1.5-2.2 2 .6-1.7.4-4.4 1.6-6.7l-1.4-.8-4 5.4-.2.1c-1.4 1.6-2.7 2.8-3.4 2.8-.5 0-.7-.3-.2-1l3.9-6.8H186l-3.3 5.6c-1.4 1.3-2.5 2-2.8 1.9-.5-.2 0-.9.2-1.3l3.6-6.2h-1.9l-2.8 4.9-.2.1c-.8 1-1.8 1.4-2.7 1.4l1.7-3c1.1-2 0-3.8-1.7-3.8-1.4 0-2.5.6-3.5 2.4l-1 1.6-.7 1.3-.1.1c-1.4 1.6-3 2.8-4.3 2.8-1.1 0-1.8-.8-1-2.2l.2-.3c1.2.5 3.4.2 4.8-2.2l.2-.4c1-1.7.1-3-1.4-3s-2.7.9-3.5 2.2l-1.8 3v.2a11.8 11.8 0 0 1-4.4 3.5l4.1-7h-1c0-.8-.9-1.8-2-1.8-1 0-2.4.8-3.1 2.1l-1.8 3-.1.2c-1.4 1.5-2.6 2.7-3.4 2.7-.5 0-.7-.3-.2-1l1.8-3.1c.6-1.1.3-1.8-.2-2.5l-1-1.2c-.3-.4-.3-.8 0-1l-1-1.1c-1 .9-1 2-.4 2.8l.2.2c-.8 1.1-2 2.7-3.2 4v.2c-1 1-2 1.3-2.9 1.3l1.8-3c1-1.9 0-3.7-1.7-3.7-1.4 0-2.5.6-3.5 2.4l-1 1.6-.7 1.3h-.1a11.8 11.8 0 0 1-4.3 3.6l4-7h-1c0-.8-.8-1.8-2-1.8-.9 0-2.3.8-3 2.1l-2.6 4.5c-.8 1.3-.3 2.6 1.2 2.6.5 0 1.1-.2 1.8-.6l-.5.8c-2.5.8-4 1.8-4 3.2 0 1.7 2.6 2.1 4-.2l1.4-2.3c1.5-.5 2.9-1.4 4.4-2.8 0 2.3 3.3 2.8 5.2.3h.5c1 0 2.8-.7 3.7-1.8.9-1 1.6-2 3-3.9l.3.3c.3.3.3.7.1 1l-2 3.4c-.7 1.4-.2 2.7 1.3 2.7 1 0 2-.6 3-1.5 0 .9.5 1.5 1.6 1.5.4 0 1-.3 1.7-.6l-.4.7c-2.5.7-4 1.8-4 3.1 0 1.8 2.7 2.1 4-.1l1.4-2.4c1.5-.5 3-1.3 4.5-2.8 0 1.1 1 2 2.5 2s3-1 4.2-2c0 2.4 3.3 2.9 5.3.4h.4c.5 0 1.3-.2 2-.6-.5 1.3 0 2.1 1 2.1s2.1-.9 3-1.7c-.2 1 .4 1.7 1.6 1.7 1.5 0 3.3-1.5 4.8-3.3l2.6-3.4c-.7 2-.3 5.3-2 5.3-.7 0-1-.6-1-.6l-1 .6a2 2 0 0 0 2 1.4h.4c2-.3 3.8-1.7 5.2-3.3a1 1 0 0 0-.7-.7Zm-26.3-2.6c1-1.8 3-1.5 1.8.4l-.2.4c-.9 1.5-2.1 1.5-2.8 1.3l1.2-2Zm-35.1 9.6c-.4.6-1 .6-1 0 0-.5.4-1 1.8-1.6l-.8 1.6Zm.8-4.1c-.4 0-.6-.3-.1-1l2.5-4.5c1-1.7 3-1.2 2 .4l-1.4 2.4c-1 1.8-2.2 2.7-3 2.7Zm11.3-2.8a1.1 1.1 0 0 0-1 1.7v.1c-.8 1.5-2.9 1.2-1.9-.7l1.5-2.4.8-1.5c1.3-2.2 3-1.3 2 .6l-1.4 2.2Zm11.6 6.9c-.4.6-1 .6-1 0 0-.5.4-1 1.8-1.6l-.8 1.6Zm.8-4.1c-.4 0-.6-.3-.2-1l2.6-4.5c1-1.7 3-1.2 2 .4L160 43c-1 1.8-2.2 2.7-3 2.7Zm18.1-2.8a1.1 1.1 0 0 0-1 1.7v.1c-.8 1.5-2.9 1.2-1.9-.7l1.5-2.4.8-1.5c1.3-2.2 3-1.3 2 .6l-1.4 2.2ZM79.8 40.8H62.1v1.3h17.7v-1.3ZM219.2 40.8h-17.8v1.3h17.8v-1.3Z" fill="#766458"/><path d="M100 0h4.8l-.8 27.5h-8.9L94 16l-1.2 11.4h-9L83 0h4.7l.4 22.7h.5l3-22.7h4.6l3 22.7h.5L100 0ZM119.6 22.7v4.8h-12.9V0h12.9v4.7h-8.2v6.6h6.5V16h-6.5v6.7h8.2ZM132.7 22.7v4.8h-11.2V0h4.6v22.7h6.6ZM142.6 17.4l4.8-1.1v8.3a3 3 0 0 1-3 2.9h-7a3 3 0 0 1-2.9-3V3c0-1.6 1.3-2.9 3-2.9h7a3 3 0 0 1 2.9 2.9v5.5l-4.8 1.1V4.6h-3.3v18h3.3v-5.2ZM160.1 0a3 3 0 0 1 2.9 2.9v21.6a3 3 0 0 1-2.9 2.9h-7a3 3 0 0 1-3-2.9V3c0-1.6 1.4-2.9 3-2.9h7Zm-1.8 4.7h-3.4v18h3.4v-18ZM178.3 0h4.7v27.5h-4.7V13.9l-1.9 7h-4.6l-1.8-7v13.6h-4.7V0h4.7l4.2 13.3L178.3 0ZM198.2 22.7v4.8h-12.9V0h12.9v4.7H190v6.6h6.5V16H190v6.7h8.2Z" fill="#81B3D3"/><path d="M27.2 96.4c-2.2-1.9-5-3-8-3-2.1 0-5 1.2-5 3.8 0 2.7 3.2 3.7 5.3 4.3l3 1c6.4 1.8 11.4 5 11.4 12.4 0 4.5-1.1 9.2-4.7 12.3a20 20 0 0 1-13 4.3c-5.8 0-11.5-2-16.2-5.2l5-9.5c3 2.6 6.5 4.7 10.6 4.7 2.8 0 5.8-1.4 5.8-4.6 0-3.3-4.7-4.4-7.3-5.2-7.5-2.2-12.4-4-12.4-13 0-9.2 6.6-15.3 15.9-15.3 4.6 0 10.3 1.5 14.3 3.8l-4.7 9.2ZM56.2 94.7v7.6h13.5v10H56.2v8h14.3v10H44.3V84.7h26.2v10.1H56.2ZM79.3 84.6h17a23 23 0 0 1 23.3 22.9 23 23 0 0 1-23.4 22.9h-17V84.6Zm12 35.7H94c7 0 13.2-4 13.2-12.8 0-8.2-5.4-12.8-13.1-12.8h-2.8v25.6ZM176 106.6a24.4 24.4 0 0 1-25.5 25.3 24.4 24.4 0 0 1-25.4-25.3c0-13.8 12.2-23.5 25.4-23.5s25.5 9.7 25.5 23.5Zm-38.5.1c0 7.9 5.9 13.6 13 13.6s13-5.7 13-13.6c0-6.3-5.9-12.1-13-12.1-7 0-13 5.8-13 12.1ZM182.3 84.6h12l21.8 28h.1v-28h12v45.8h-12l-21.8-28.1h-.2v28h-12V84.7ZM249.8 122.4l-3.2 8H234l17.7-45.8h13l17.3 45.8h-12.7l-3-8h-16.5Zm8.4-23.6h-.1l-5 14.5h10l-5-14.5ZM66.2 176c4.7-1.7 5-7.5.4-7.5-1.2 0-2.8.9-3.8 2.7L56.5 182c-.3.5-.5.9-.9 1.3-1.6-2.2-1.2-5.5 1.1-7l-1-1.1c-4.8 3.1-3.4 12 4.8 12 7 0 10.2-8.3 5.7-11.3Zm-5.7 9.5c-1.5 0-2.5-.3-3.4-.8.4-.5.8-1 1.1-1.7l4-6.8h.6c5.4 1.3 3.3 9.3-2.3 9.3Zm2.5-10.6 1.9-3.3c1.7-2.9 3.8-1.2 2.7 1-1 1.7-2.2 2.2-4.6 2.3Z" fill="#fff"/><path d="M86 183.4c-.4 1.4.3 2.6 1.8 2.6 1 0 2.1-.7 3.3-1.6.1 1 .8 1.6 2 1.6s2.6-.9 4-2.1c-.3 1.2.2 2 1.4 2 1.3 0 2.7-1.1 3.8-2.1-.2 1.2.5 2.2 2 2.2 1.9 0 4-2.1 6-4.3v-.1c1.3-1.5 2.4-3.1 3.2-4.2-.9 2.4-.4 6.7-2.6 6.7-.8 0-1.1-.8-1.1-.8l-1.5.7s.5 1.9 2.6 1.9h.7a9.9 9.9 0 0 0 4.9-2.6c0 1.5 1.2 2.6 3.1 2.6 2.7 0 5.3-2 7.2-4.3-.2-.3-.6-.7-.9-.8l-.2.2c-1.6 2-3.8 3.5-5.4 3.5-1.4 0-2.3-1-1.2-2.8l.2-.4c1.5.6 4.3.3 6-2.7l.4-.5c1.2-2.2 0-3.8-1.9-3.8s-3.3 1-4.3 2.7l-2.3 3.9-.2.2c-.9 1-2 1.9-2.8 2.5.7-2.2.5-5.7 2-8.6l-1.7-1c-1 1.4-3.1 4.4-5.2 6.9v.2c-1.7 2-3.3 3.4-4.4 3.4-.4 0-.8-.3-.2-1.2l5-8.7h-2.4l-4 7.2c-1.9 1.6-3.2 2.5-3.6 2.3-.6-.2 0-1 .3-1.6l4.5-7.9h-2.3l-3.7 6.4-.2-.1-.2.2c-1.6 2-3.3 3.4-4.3 3.4-.5 0-.8-.3-.3-1.2l3.8-6.6h-1.4c0-1-.9-2.3-2.4-2.3-1.3 0-3 1-4 2.7l-2.4 4-.3-.2-.2.2c-1.7 2-3.8 3.4-5.5 3.4-1.4 0-2.2-.9-1.2-2.7l2.4-4.2c1.3-2.3 3.7-1.9 2.3.5l-.3.6h2l.2-.6c1.3-2.1 0-3.7-1.8-3.7-2 0-3.4 1-4.4 2.7l-2.3 4-.2-.2-.2.2c-1.6 2-3.8 3.5-5.4 3.5-1.4 0-2.3-1-1.3-2.7l.3-.5c1.5.6 4.3.3 6-2.7l.4-.5c1.2-2.2 0-3.7-1.9-3.7s-3.3 1-4.3 2.7l-2.5 4.1c-1.5 2.5-.2 4.8 2.6 4.8 2 0 4.1-1.2 5.8-2.8-.1 1.6 1.1 2.8 3.1 2.8 2-.1 3.9-1.2 5.5-2.7Zm35.5-5.8c1.4-2.3 3.8-2 2.3.5l-.3.5c-1 2-2.6 1.9-3.5 1.5l1.5-2.5Zm-33.2 5.7 3.2-5.7c1.2-2.1 3.7-1.6 2.6.5l-1.9 3.2c-1.4 2.2-2.8 3.2-3.7 3.2-.5 0-.8-.3-.2-1.2Zm-14.9-5.7c1.4-2.3 3.7-2 2.3.5l-.3.5c-1 2-2.6 1.9-3.5 1.5l1.5-2.5ZM152.3 186c2.7 0 5.3-2.1 7.2-4.3-.2-.3-.5-.7-.9-.8l-.1.2c-1.7 2-3.8 3.4-5.5 3.4-1.4 0-2.3-.9-1.2-2.7l.2-.4c1.5.6 4.3.3 6-2.7l.4-.6c1.2-2.1 0-3.7-1.8-3.7-2 0-3.4 1-4.4 2.7l-2.3 3.8-.2.2c-1.7 2-3.3 3.4-4.4 3.4-.5 0-.8-.3-.2-1.2l3.4-6c1-1.7 0-3-1.3-3-1 0-2 .6-3.2 1.8l3.7-6.4h-2.4l-6.5 11.3-.3-.2-.2.2c-1.6 2-3.3 3.5-4.3 3.5-.5 0-.8-.4-.3-1.3l5-8.7h1.9l.7-1h-2l2.3-3.9h-2.3l-2.3 3.8h-2l-.7 1.1h2.1l-4.6 8c-1 1.8-.3 3.4 1.6 3.4 1.1 0 2.4-.7 3.6-1.8l-.9 1.5h2.4l3.5-6c3.6-4.5 5.2-4 4.2-2.3l-3 5.3c-1 1.7-.3 3.3 1.6 3.3 1.4 0 3-1.1 4.5-2.6 0 1.6 1.1 2.7 3 2.7Zm2-8.4c1.3-2.3 3.7-2 2.3.5l-.3.5c-1.2 2-2.7 1.9-3.5 1.5l1.4-2.5ZM222.9 180.9l-.2.2c-1.6 2-3.3 3.4-4.3 3.4-.5 0-.8-.3-.3-1.2l7.9-13.6h-2.4l-3.4 5.9a2.5 2.5 0 0 0-2.1-1.3c-1.3 0-3 1-4 2.7l-2.3 4-.1-.1-.2.2c-1.7 2-3.3 3.4-4.4 3.4-.5 0-.8-.3-.2-1.2l3.4-6c1-1.7 0-3-1.3-3-1 0-2 .6-3.2 1.7l.8-1.5h-2.3l-3.7 6.4h-.3l-.2.1c-1.6 2-3.3 3.5-4.3 3.5-.5 0-.8-.4-.3-1.3l3.8-6.5H198c0-1-1-2.4-2.4-2.4-1.3 0-3 1-4 2.7l-2.3 3.9-.1.1c-1.7 2-3.3 3.5-4.4 3.5-.5 0-.8-.4-.2-1.3l2.3-4c.8-1.4.4-2.2-.3-3.2l-1.3-1.5c-.3-.5-.3-1 .1-1.4l-1.2-1.3c-1.4 1.1-1.4 2.5-.6 3.5l.2.3c-1 1.4-2.4 3.4-4 5.2l.2.1a15.4 15.4 0 0 1-5.4 4.4l3-5h-2.3l-.2.5c-1.3 2.1-2.7 3.7-4.5 3.7-1.6 0-2-1.6-.5-4l.7-1.2 1.3.2c8.3 0 12.3-11 5-11-1.3 0-2.8.8-3.9 2.6l-3.6 6.2c-1.4-.7-2.1-2-2.1-3.3 0-1 .5-2.1 1.5-3l-.8-1.3a5.2 5.2 0 0 0-2.4 4.4c0 1.8 1 3.6 3 4.6l-.7 1.2c-1.6 2.8-1.3 6 2 6 1 0 1.8-.4 2.5-.8l-.6 1c-3.1 1-5.1 2.2-5.1 4 0 2.2 3.4 2.7 5-.2l1.9-3c2.4-.8 4.8-2.4 7.3-5.4v-.3l3.6-4.7.3.3c.3.4.4.9.1 1.4l-2.4 4.3c-1 1.7-.3 3.3 1.6 3.3 1.1 0 2.4-.8 3.6-1.9 0 1 .7 1.9 2 1.9 1 0 2.2-.6 3.3-1.6.1 1 .9 1.6 2 1.6s2.4-.7 3.5-1.7l-.8 1.4h2.3l3.6-6.2c3.5-4.4 5.1-3.8 4-2l-3 5.2c-.9 1.7-.2 3.3 1.7 3.3 1.2 0 2.6-.9 3.9-2-.1 1.1.6 2 2 2 1 0 2.1-.6 3.3-1.6.1 1 .8 1.6 2 1.6 2 0 4.1-2.1 6-4.3l-.9-.6Zm-47.8-8.7c.7-1.2 1.5-1.7 2-1.7 3.8 0 1.2 7.5-4.9 7.5h-.5l3.4-5.8Zm-5 17.5c-.5.8-1.3.7-1.3.1s.6-1.3 2.4-2l-1 1.9Zm24.4-8.5c-1.4 2.2-2.8 3.3-3.8 3.3-.4 0-.8-.4-.2-1.3l3.2-5.6c1.3-2.2 3.8-1.6 2.6.5l-1.8 3.1Zm22.5 0c-1.4 2.2-2.8 3.3-3.8 3.3-.5 0-.8-.4-.2-1.3l3.2-5.6c1.2-2.2 3.8-1.6 2.6.5l-1.8 3ZM145.1 202.9l-.1.2c-1.7 2-3.4 3.5-4.4 3.5-.5 0-.8-.4-.2-1.3l3.3-5.9c1-1.8 0-3-1.2-3-1 0-2 .5-3.2 1.7l.8-1.6h-2.3L134 203l-.3-.2-.2.2a4.8 4.8 0 0 1-3.5 1.7l2.3-3.8c1.4-2.4 0-4.7-2.1-4.7-1.8 0-3.2.8-4.6 3l-1.1 2-1 1.8-.2-.2-.2.2a15.5 15.5 0 0 1-5.4 4.4l6.4-10.9h-2.3l-4.2 7.2c-1.7 1.6-3.1 2.6-3.6 2.4-.5-.3 0-1.1.3-1.6l4.6-8h-2.4l-3.7 6.5-.2-.1-.2.2c-1.6 2-3.3 3.5-4.3 3.5-.5 0-.8-.4-.3-1.3l3.4-5.9c1-1.8 0-3-1.2-3-1 0-2.1.5-3.3 1.7l.9-1.6h-2.3l-3.8 6.5-.2-.2-.2.2c-1.7 2-3.3 3.5-4.4 3.5-.5 0-.8-.4-.2-1.3l3.7-6.5H99c0-1-1-2.3-2.5-2.3-1.2 0-3 1-4 2.6l-2.4 4.2-.5-.3-.1.2c-1.7 2-3.8 3.5-6 3.5-1.7 0-2.6-1.6-1.2-4l.7-1.2 1.3.1c2.5 0 5.3-1.2 7.1-4.4.7-1.2 1-2.2 1-3.1 0-2.1-1.4-3.5-3.1-3.5-1.3 0-2.9.9-3.9 2.7l-3.6 6.2c-1.4-.7-2.1-2-2.1-3.3 0-1.1.5-2.1 1.5-3l-.8-1.3a5.2 5.2 0 0 0-2.4 4.4c0 1.8 1 3.6 3 4.6l-.7 1.2c-1.6 2.8-.7 6 2.7 6 2.5 0 4.5-1.3 6-2.8-.4 1.5.3 2.7 2 2.7 1 0 2-.6 3.2-1.5.2.9.9 1.5 2 1.5 1.2 0 2.4-.7 3.6-1.7l-.9 1.5h2.3l3.6-6.2c3.6-4.5 5.2-3.9 4.1-2.2l-3 5.3c-1 1.7-.3 3.3 1.6 3.3 1.2 0 2.6-.8 4-2-.3 1.2.3 2 1.5 2 1 0 2.4-1 3.4-1.9l-1.3 2.2c-3.1 1-5.1 2.2-5.1 4 0 2.2 3.4 2.7 5-.2l1.8-3a15 15 0 0 0 6-3.8c-.4 3.2 4 4 6.5.6h.5c.9 0 2-.3 3.1-.9l-1.5 2.7h2.3l3.6-6.2c3.5-4.4 5.1-3.8 4-2.1l-3 5.2c-1 1.8-.2 3.3 1.7 3.3s4-2 6-4.2c0-.2-.5-.6-.8-.7Zm-57.9-8.7c.7-1.2 1.5-1.7 2.1-1.7.9 0 1.3.5 1.3 1.4 0 2.1-2.7 6-6.3 6h-.5l3.4-5.7Zm8.2 9c-1.4 2.3-2.8 3.3-3.7 3.3-.5 0-.8-.4-.3-1.3l3.3-5.6c1.2-2.2 3.7-1.6 2.6.5l-1.9 3.2Zm17.7 8.5c-.5.9-1.3.7-1.3.1s.6-1.3 2.4-2l-1 1.9Zm15.7-8.7h-.1c-.7 0-1.4.6-1.4 1.4 0 .3.1.6.3.8-1.1 2-3.8 1.6-2.4-.8l1.8-3.1 1-1.9c1.7-2.7 4-1.6 2.5.7l-1.7 3ZM199 203.7c0-.4-.5-.7-.8-.8l-.2.2c-.8 1-1.9 1.9-2.8 2.5.8-2.2.6-5.6 2-8.6l-1.7-.9c-1 1.4-3 4.3-5.1 6.8l-.2.2c-1.7 2-3.3 3.5-4.4 3.5-.5 0-1-.5-1-1.6v-1c1.7.2 3.4-.9 4.5-2.8l.6-1c2.2-3.8-1.3-5-3.7-2.8l3.3-5.8h-2.3l-6.6 11.5c-.2 0-.4-.2-.5-.3l-.2.2c-1.6 2-3.8 3.5-5.4 3.5-1.4 0-2.3-1-1.2-2.8l2.3-4.1c1.4-2.3 3.8-1.9 2.4.5l-.3.5h1.9l.3-.5c1.2-2.2 0-3.7-1.9-3.7s-3.3 1-4.3 2.6l-2.3 4-.1-.1-.2.2c-1.7 2-3.3 3.5-4.4 3.5-.4 0-.8-.4-.2-1.3l5-8.7H169l-4 7.2c-1.9 1.6-3.2 2.5-3.6 2.3-.6-.2 0-1 .3-1.6l4.5-7.8H164l-4.6 7.7-1.4 1.2c.7-2.2.5-5.6 2-8.5l-1.7-1c-1 1.4-6.3 8.5-8.5 11 .2.3.6.5.9.7l6.5-8.3c-.9 2.4-.4 6.8-2.6 6.8-.8 0-1.1-.9-1.1-.9l-1.5.7s.4 2 2.6 2l.7-.1a8 8 0 0 0 3.5-1.5c0 1 .5 1.5 1.5 1.5 1.3 0 2.7-1.1 3.8-2.2-.2 1.3.5 2.2 2 2.2 1.4 0 3-1.1 4.6-2.7 0 1.6 1.2 2.7 3.1 2.7 2 0 3.7-1 5.4-2.4l-1.3 2.2h2.3l2.7-4.5v1.8c0 2 .4 3 2.3 3s4-2 6-4.3c1.4-1.5 2.5-3.1 3.3-4.2-.9 2.4-.4 6.7-2.6 6.7-.8 0-1.1-.8-1.1-.8l-1.5.7s.5 1.9 2.6 1.9h.7c2.4-.5 4.8-2.4 6.5-4.4Zm-15.4-1.8.7-1.2c2.7-3.7 4.5-2.7 3.7-1.3l-1.1 1.9c-.7 1.2-2.7 2-3.3.6ZM199 205.3a1.3 1.3 0 1 0 0 2.7c.8 0 1.4-.6 1.4-1.4 0-.7-.6-1.3-1.4-1.3ZM199.1 204.4h2.4l7.3-12.7h-2.3l-7.4 12.7ZM49.2 169.8l-.1.5c0 .2-.2.4-.3.5l-.5.4h-.7l-.8-.1c-.2-.1-.5-.2-.6-.4l-.4-.6a3 3 0 0 1-.1-.8c0-.6 0-1 .3-1.5.2-.4.4-.9.8-1.2l.5-.4.5-.3.4-.2.3-.2.8 1.3s-.3 0-.4.2l-.6.3-.4.5a1 1 0 0 0-.2.6c.4 0 .7.1 1 .4.4.2.5.5.5 1Zm4.9 0c0 .1 0 .3-.2.5 0 .2-.1.4-.3.5l-.5.4h-.6l-.8-.1-.7-.4-.4-.6a3 3 0 0 1 0-.8c0-.6 0-1 .2-1.5.2-.4.4-.9.8-1.2l.5-.4.6-.3.4-.2.2-.2.9 1.3c-.1 0-.3 0-.5.2l-.6.3-.4.5a1 1 0 0 0-.2.6c.5 0 .8.1 1 .4.4.2.6.5.6 1ZM216.8 205.8v-.6l.4-.5.5-.3.7-.2.8.2.6.4.4.7.1.8c0 .5-.1 1-.3 1.4a3 3 0 0 1-.8 1.2 3.4 3.4 0 0 1-1 .7c-.2 0-.3.2-.5.3h-.2l-.9-1.1.5-.3.6-.3.4-.5.2-.6c-.4 0-.7-.1-1-.4-.4-.1-.5-.5-.5-1Zm-4.8 0 .1-.6c0-.2.2-.3.3-.5l.5-.3.7-.2.8.2.6.4.4.7.1.8c0 .5 0 1-.3 1.4a3 3 0 0 1-.8 1.2l-.5.4c-.1.1-.3.3-.5.3s-.3.2-.4.3h-.3l-.8-1.1.4-.3.6-.3.4-.5.2-.6c-.4 0-.7-.1-1-.4-.4-.1-.5-.5-.5-1Z" fill="#fff"/></g></symbol></svg>